PathFileType	4	(X/Y/Z)	F:\MotionCapture\20160217\3\Generated_files\EMG_test05-Dynamic.trc
DataRate	CameraRate	NumFrames	NumMarkers	Units	OrigDataRate	OrigDataStartFrame	OrigNumFrames
120.00	120.00	       7	39	mm	120.00	447	       714
Frame#	Time	Top.Head			Front.Head			Rear.Head			R.Shoulder			R.Offset			R.Elbow			R.Wrist			L.Shoulder			L.Elbow			L.Wrist			R.ASIS			L.ASIS			V.Sacral			R.Thigh			R.Knee			R.Shank			R.Ankle			R.Heel			R.Toe			L.Thigh			L.Knee			L.Shank			L.Ankle			L.Heel			L.Toe			R1			R2			R3			R4			R5			R6			R7			L1			L2			L3			L4			L5			L6			L7			V_Mid_ASIS			V_Pelvis_Origin			V_R.Hip_JC			V_L.Hip_JC			V_R.Knee_JC			V_L.Knee_JC			V_R.Ankle_JC			V_L.Ankle_JC			V_Mid_Hip			V_Mid_Shoulder			V_R.Hand			V_L.Hand			V_R.Toe_Offset_Static			V_L.Toe_Offset_Static			V_R.Toe_Offset			V_L.Toe_Offset			
		X1	Y1	Z1	X2	Y2	Z2	X3	Y3	Z3	X4	Y4	Z4	X5	Y5	Z5	X6	Y6	Z6	X7	Y7	Z7	X8	Y8	Z8	X9	Y9	Z9	X10	Y10	Z10	X11	Y11	Z11	X12	Y12	Z12	X13	Y13	Z13	X14	Y14	Z14	X15	Y15	Z15	X16	Y16	Z16	X17	Y17	Z17	X18	Y18	Z18	X19	Y19	Z19	X20	Y20	Z20	X21	Y21	Z21	X22	Y22	Z22	X23	Y23	Z23	X24	Y24	Z24	X25	Y25	Z25	X26	Y26	Z26	X27	Y27	Z27	X28	Y28	Z28	X29	Y29	Z29	X30	Y30	Z30	X31	Y31	Z31	X32	Y32	Z32	X33	Y33	Z33	X34	Y34	Z34	X35	Y35	Z35	X36	Y36	Z36	X37	Y37	Z37	X38	Y38	Z38	X39	Y39	Z39	

447	3.717	669.85638	17.66150	1728.38647	784.56366	16.66992	1649.96863	564.37408	27.26754	1654.97144	637.16919	-172.96915	1421.82458	494.90475	89.87738	1276.16016	643.38324	-295.08722	1103.92627	826.60669	-286.63483	916.75397	638.39044	234.55327	1423.53040	561.10437	351.07895	1120.73706	626.00714	393.27847	873.65118	692.40466	-117.63734	941.06091	714.27417	168.82474	950.28326	481.19693	52.06290	942.77173	691.81842	-46.40720	560.36627	606.31891	-78.46523	459.47302	575.85577	9.75890	232.78896	503.25748	-49.48525	68.86443	436.02060	16.01231	45.24174	647.71118	-32.38063	39.58273	860.11755	147.33533	686.47314	823.74323	210.40996	500.10370	826.77417	128.95172	358.87381	702.63623	163.77762	106.55550	648.44714	94.81622	102.66018	832.32275	173.34787	62.05259	692.95166	-13.09983	37.65144	654.60773	4.74370	47.07156	557.18140	40.88791	57.05891	483.90308	46.07113	44.16467	465.87994	-28.23894	42.47166	540.14594	-56.62128	33.06871	606.56793	-76.71750	33.82419	850.24384	138.39870	66.29723				771.19110	85.44476	90.75079	692.47339	70.65864	97.95110	668.34497	138.57410	91.63611	733.50720	180.49110	68.70773	792.65021	193.97252	59.29465																																																	878.23181	156.70345	58.50383	362.94431	84.68769	-26.75905	
448	3.725	680.82550	17.75099	1726.72205	795.55426	16.78810	1648.41858	575.81506	27.34320	1653.24365	647.84393	-173.22841	1420.66846	506.04410	89.76035	1274.42004	657.54193	-295.82300	1102.94226	844.39209	-286.27243	919.88562	649.71210	234.21733	1421.53845	568.70465	350.72495	1120.57507	627.05029	395.63397	872.59930	702.43787	-118.65383	939.58478	725.72217	168.01723	948.17902	491.89767	51.73249	941.08844	698.84314	-47.47588	558.25940	611.87885	-78.62756	458.41058	580.19104	8.96010	232.37094	503.90347	-48.94622	69.14307	436.99182	17.11970	45.71463	647.58795	-32.55571	39.27329	872.36371	145.55444	685.88214	838.06873	207.92546	499.17081	847.03412	126.59891	358.55399	739.09790	162.35513	99.46913	681.52289	95.70406	90.04752	870.07251	170.34129	63.76459	693.78040	-13.54595	38.14243	654.12610	4.04270	46.86453	557.53217	41.57236	56.98521	484.40756	46.77803	44.87845	465.96811	-26.98808	42.98943	540.14581	-56.44862	33.22738	606.35632	-76.61961	33.75390	887.57410	136.10716	68.23727				807.38458	83.99092	88.23719	727.43530	70.08076	90.12158	704.83044	138.41238	82.19577	771.72504	179.30875	62.93682	831.13141	193.55983	58.02795																																																	916.33081	154.11852	62.79333	362.48349	85.47548	-26.99007	
449	3.733	692.08344	17.81192	1725.03064	806.76593	16.47567	1646.86426	587.21313	27.64384	1651.46655	658.29388	-174.05959	1419.27905	517.16455	89.84295	1272.86646	671.27045	-297.18253	1101.58569	862.58575	-285.55774	923.01666	661.15863	233.77429	1419.53271	575.67090	350.05081	1120.29321	627.71802	397.70416	871.43695	712.79987	-119.95994	937.56891	737.34961	167.38965	946.08575	502.85583	51.50307	939.14825	706.04584	-48.31264	556.71600	616.90820	-78.97816	457.47516	582.19214	9.59829	231.32652	504.48840	-48.03539	69.17636	437.41016	18.06576	46.36062	648.60553	-32.87960	39.85722	884.47601	143.75255	684.73126	850.97888	205.06572	497.47321	867.39270	124.18079	357.84796	774.41876	162.03079	93.06483	717.43140	95.71728	80.54402	908.04480	168.86530	65.32630	693.87225	-13.44440	37.12792	654.61737	3.86860	46.60501	558.50085	41.79544	57.02007	484.84802	47.51757	45.33828	466.38840	-26.19910	43.36537	540.39026	-56.15390	33.43168	606.43903	-76.62572	33.62466	924.61621	134.08920	70.97769				842.78821	82.94221	85.59628	762.32166	70.07390	82.83415	740.68329	138.32593	73.58450	810.12775	178.40486	58.06750	869.70282	192.47334	57.59391																																																	953.48956	152.02342	67.93633	362.65286	85.91328	-26.68859	
450	3.742	703.27728	18.01674	1723.02148	818.15363	16.46269	1644.95093	598.21808	27.27948	1649.27478	669.44379	-174.18005	1417.71521	528.59583	89.67266	1270.90662	685.33081	-297.90875	1100.59717	880.42004	-284.98956	925.92303	672.61481	233.69987	1417.29431	583.60681	349.60776	1119.89282	629.06537	400.13501	870.13898	723.04407	-120.91946	935.77789	749.42133	166.66380	944.15002	513.76910	51.39658	938.00305	713.50647	-49.58712	554.58813	622.75110	-79.16544	456.43079	584.78827	9.91235	230.74280	504.78195	-47.50888	69.49399	437.58145	19.16035	47.42844	648.92102	-33.10965	39.61836	896.01025	142.46660	683.08752	864.35815	202.36134	495.57928	887.17883	121.81330	357.58527	810.31409	161.73315	87.96358	753.54437	96.05247	71.63979	945.04633	167.47787	68.45760	694.43408	-13.76650	36.86125	654.89978	3.80011	46.36531	559.73206	42.11038	56.86169	485.45020	48.05826	45.67498	466.67447	-25.21339	43.76659	540.77606	-55.64172	33.60137	606.45758	-76.60130	33.58500	960.58655	132.64914	74.69589				877.92413	82.38758	84.18484	796.98578	70.90716	76.65350	777.80597	138.29366	66.41064	847.82257	177.94968	54.82284	907.43353	191.36522	58.04365																																																	989.86810	150.02739	73.20982	
451	3.750	714.40399	17.97907	1721.13660	829.21588	16.61166	1642.90161	609.53217	26.91063	1646.97888	680.39117	-174.72910	1415.88062	539.96393	90.00598	1268.92273	699.78094	-298.79636	1099.29004	897.66162	-284.37836	928.78436	684.02209	233.02826	1415.33215	590.95905	349.09512	1119.34680	631.24249	401.92120	869.16803	733.52008	-121.52676	934.03394	760.87225	165.90520	941.54468	524.84729	50.99995	936.24017	720.77112	-51.06863	553.08270	628.47180	-79.73716	455.49365	588.02161	9.68153	230.24039	506.07263	-46.97221	69.65871	438.78943	20.14077	48.30952	648.97888	-33.03581	39.13913	907.64246	140.78325	680.87341	876.64655	199.33357	493.28824	906.17133	119.34202	356.98801	847.49438	160.61136	83.21655	788.79645	97.00607	64.11778	981.22260	166.21899	71.83050	695.33075	-14.29415	36.96384	655.35779	3.63161	46.21698	560.73370	42.16489	56.98610	486.64386	48.78397	46.15026	467.84177	-24.60509	44.33323	540.91162	-55.23598	33.71582	606.59631	-76.81839	33.52713	996.00238	130.93600	79.92129				912.71338	81.91553	83.27293	832.02423	71.06118	71.63490	813.45343	139.97418	60.18752	885.11096	177.55077	52.60618	944.24860	190.25938	59.55664																																																	1021.44781	150.15927	81.53713	807.11255	74.56907	-38.98962	
452	3.758	725.84369	18.02355	1718.88220	840.74774	16.55223	1640.63953	620.50238	26.81233	1644.93616	691.18158	-174.65565	1413.97949	551.11194	89.69429	1266.86682	713.25763	-299.26169	1097.56140	914.60529	-283.53513	931.04401	695.82031	233.05997	1412.99219	599.58069	348.94467	1118.93909	632.77667	403.90353	868.21155	745.05200	-122.35326	932.54156	773.33533	165.41704	938.95740	536.34943	51.25799	934.74811	727.55664	-52.23727	550.75122	633.71942	-80.19038	454.19543	590.83386	9.74371	229.68176	505.97232	-47.10511	70.16392	439.13428	20.80204	48.95867	649.27502	-33.25372	39.09208	918.65417	139.98631	678.18787	888.48602	196.04877	491.03195	924.78851	116.70403	356.27850	883.27576	160.53886	80.14604	823.49652	98.06194	57.49267	1015.92633	164.64613	76.65356	696.00891	-14.58859	36.62500	655.73547	3.50388	46.08239	561.14978	42.22557	57.10804	487.27179	49.19124	47.31891	467.41217	-24.25381	45.24606	541.15131	-54.90178	33.85072	606.63873	-76.76566	33.51191	1030.09033	129.66121	85.14737				946.30298	81.61443	83.67682	865.95966	71.87647	67.20745	849.21198	140.06474	55.62177	921.56635	177.86609	51.92279	980.84131	189.66972	62.54063																																																	1055.77942	147.95403	88.49692	364.29260	87.13869	-25.69522	
453	3.767	737.05493	17.91780	1716.60449	852.45996	16.32115	1638.22205	631.99823	26.53178	1642.64539	701.90161	-174.99124	1412.22949	562.42957	89.64885	1264.17224	727.15619	-299.64346	1096.01147	931.36780	-283.14902	933.35901	707.53998	233.04585	1410.63708	607.69214	348.77237	1118.36475	635.78448	405.29260	867.44788	755.15558	-123.11452	930.27228	785.49329	164.17183	936.88147	548.49506	51.39040	932.88977	735.41949	-53.98629	548.81787	639.10474	-80.95004	453.02170	594.12933	9.38555	229.25491	506.38293	-46.16850	70.67188	439.63260	21.79000	50.14248	648.84814	-32.96177	38.83882	930.13708	138.41017	674.93475	900.37488	193.12639	488.50656	943.96155	114.96496	356.39795	917.39465	160.50279	77.56078	857.72662	99.62660	52.56260	1050.16663	163.60602	81.94487	696.59460	-14.70792	35.91189	655.58527	3.30183	45.46608	561.88904	42.03401	57.64192	487.85516	49.30197	48.25010	467.24738	-23.64874	46.24614	541.35675	-54.37453	33.89339	606.45099	-76.46304	33.43837	1063.02051	128.15627	90.96416				978.56781	81.27303	84.62626	898.62329	72.75095	64.66602	884.24939	140.85127	51.58652	957.14948	177.04503	51.78268	1015.82941	187.10547	64.76394																																																	1093.30103	143.39677	94.66365	719.61133	12.54030	-112.92762	364.35678	87.83170	-24.74156	701.65533	-82.01208	-90.47462	
